<svg xmlns="http://www.w3.org/2000/svg" viewBox="0 0 1100 915" role="img" aria-label="续作：复用工具会话，但执行 Task ID 改变" style="font-family:-apple-system,BlinkMacSystemFont,Segoe UI,PingFang SC,Microsoft YaHei,sans-serif"><title>续作：复用工具会话，但执行 Task ID 改变</title><desc>复用范围是同一工具的原生会话；不是把 Claude 的 Session 交给 Codex。</desc><defs><marker id="arrow" viewBox="0 0 10 10" refX="9" refY="5" markerWidth="7" markerHeight="7" orient="auto-start-reverse"><path d="M 0 0 L 10 5 L 0 10 z" fill="#748aad"/></marker></defs><rect width="1100" height="915" fill="white"/><g><rect x="17.0" y="18" width="156" height="66" rx="12" fill="#edf4ff" stroke="#185adb" stroke-opacity=".36"/><path d="M18.0 38v26" stroke="#185adb" stroke-width="3"/><text x="95.0" y="47" text-anchor="middle" font-size="18" font-weight="650" fill="#185adb">父 Session</text></g><path d="M95.0 86V860" stroke="#cbd7e8" stroke-dasharray="5 6" stroke-width="1.5"/><g><rect x="320.3333333333333" y="18" width="156" height="66" rx="12" fill="#edf4ff" stroke="#185adb" stroke-opacity=".36"/><path d="M321.3333333333333 38v26" stroke="#185adb" stroke-width="3"/><text x="398.3333333333333" y="47" text-anchor="middle" font-size="18" font-weight="650" fill="#185adb">原生 Gateway</text></g><path d="M398.3333333333333 86V860" stroke="#cbd7e8" stroke-dasharray="5 6" stroke-width="1.5"/><g><rect x="623.6666666666666" y="18" width="156" height="66" rx="12" fill="#edf4ff" stroke="#185adb" stroke-opacity=".36"/><path d="M624.6666666666666 38v26" stroke="#185adb" stroke-width="3"/><text x="701.6666666666666" y="47" text-anchor="middle" font-size="18" font-weight="650" fill="#185adb">工具 Session</text></g><path d="M701.6666666666666 86V860" stroke="#cbd7e8" stroke-dasharray="5 6" stroke-width="1.5"/><g><rect x="927.0" y="18" width="156" height="66" rx="12" fill="#edf4ff" stroke="#185adb" stroke-opacity=".36"/><path d="M928.0 38v26" stroke="#185adb" stroke-width="3"/><text x="1005.0" y="47" text-anchor="middle" font-size="18" font-weight="650" fill="#185adb">观察 / accept</text></g><path d="M1005.0 86V860" stroke="#cbd7e8" stroke-dasharray="5 6" stroke-width="1.5"/><g data-event="0"><rect class="event-highlight" x="7" y="95" width="1086" height="64" rx="8" fill="#edf4ff" opacity="0"/><circle cx="20" cy="121" r="12" fill="#edf4ff"/><text x="20" y="125" text-anchor="middle" font-size="12" font-weight="500" fill="#185adb">1</text><path d="M95.0 132L398.3333333333333 132" fill="none" stroke="#185adb" stroke-width="2" marker-end="url(#arrow)"/><text x="246.66666666666666" y="118" text-anchor="middle" font-size="15" font-weight="500" fill="#185adb">spawn_run：首次 Task A</text></g><g data-event="1"><rect class="event-highlight" x="7" y="169" width="1086" height="64" rx="8" fill="#edf4ff" opacity="0"/><circle cx="20" cy="195" r="12" fill="#edf4ff"/><text x="20" y="199" text-anchor="middle" font-size="12" font-weight="500" fill="#185adb">2</text><path d="M398.3333333333333 206L701.6666666666666 206" fill="none" stroke="#185adb" stroke-width="2" marker-end="url(#arrow)"/><text x="550.0" y="192" text-anchor="middle" font-size="15" font-weight="500" fill="#185adb">创建工具 Session S</text></g><g data-event="2"><rect class="event-highlight" x="7" y="243" width="1086" height="64" rx="8" fill="#edf4ff" opacity="0"/><circle cx="20" cy="269" r="12" fill="#edf4ff"/><text x="20" y="273" text-anchor="middle" font-size="12" font-weight="500" fill="#185adb">3</text><path d="M701.6666666666666 280L398.3333333333333 280" fill="none" stroke="#9d6100" stroke-width="2" stroke-dasharray="7 5" marker-end="url(#arrow)"/><text x="550.0" y="266" text-anchor="middle" font-size="15" font-weight="500" fill="#9d6100">结果缺交接 / 空返回</text></g><g data-event="3"><rect class="event-highlight" x="7" y="317" width="1086" height="64" rx="8" fill="#edf4ff" opacity="0"/><circle cx="20" cy="343" r="12" fill="#edf4ff"/><text x="20" y="347" text-anchor="middle" font-size="12" font-weight="500" fill="#185adb">4</text><path d="M1005.0 354L95.0 354" fill="none" stroke="#bc304b" stroke-width="2" stroke-dasharray="7 5" marker-end="url(#arrow)"/><text x="550.0" y="340" text-anchor="middle" font-size="15" font-weight="500" fill="#bc304b">首次核对未通过</text></g><g data-event="4"><rect class="event-highlight" x="7" y="391" width="1086" height="64" rx="8" fill="#edf4ff" opacity="0"/><circle cx="20" cy="417" r="12" fill="#edf4ff"/><text x="20" y="421" text-anchor="middle" font-size="12" font-weight="500" fill="#185adb">5</text><path d="M95.0 428L398.3333333333333 428" fill="none" stroke="#185adb" stroke-width="2" marker-end="url(#arrow)"/><text x="246.66666666666666" y="414" text-anchor="middle" font-size="15" font-weight="500" fill="#185adb">spawn_continue：新的 Task B</text></g><g data-event="5"><rect class="event-highlight" x="7" y="465" width="1086" height="64" rx="8" fill="#edf4ff" opacity="0"/><circle cx="20" cy="491" r="12" fill="#edf4ff"/><text x="20" y="495" text-anchor="middle" font-size="12" font-weight="500" fill="#185adb">6</text><path d="M398.3333333333333 502L701.6666666666666 502" fill="none" stroke="#185adb" stroke-width="2" marker-end="url(#arrow)"/><text x="550.0" y="488" text-anchor="middle" font-size="15" font-weight="500" fill="#185adb">按原生 Conversation 复用 S</text></g><g data-event="6"><rect class="event-highlight" x="7" y="539" width="1086" height="64" rx="8" fill="#edf4ff" opacity="0"/><circle cx="20" cy="565" r="12" fill="#edf4ff"/><text x="20" y="569" text-anchor="middle" font-size="12" font-weight="500" fill="#185adb">7</text><path d="M701.6666666666666 576L398.3333333333333 576" fill="none" stroke="#117d58" stroke-width="2" stroke-dasharray="7 5" marker-end="url(#arrow)"/><text x="550.0" y="562" text-anchor="middle" font-size="15" font-weight="500" fill="#117d58">补齐实际结果与 handoff</text></g><g data-event="7"><rect class="event-highlight" x="7" y="613" width="1086" height="64" rx="8" fill="#edf4ff" opacity="0"/><circle cx="20" cy="639" r="12" fill="#edf4ff"/><text x="20" y="643" text-anchor="middle" font-size="12" font-weight="500" fill="#185adb">8</text><path d="M1005.0 650L398.3333333333333 650" fill="none" stroke="#185adb" stroke-width="2" stroke-dasharray="7 5" marker-end="url(#arrow)"/><text x="701.6666666666666" y="636" text-anchor="middle" font-size="15" font-weight="500" fill="#185adb">读取续作回执与 Conversation</text></g><g data-event="8"><rect class="event-highlight" x="7" y="687" width="1086" height="64" rx="8" fill="#edf4ff" opacity="0"/><circle cx="20" cy="713" r="12" fill="#edf4ff"/><text x="20" y="717" text-anchor="middle" font-size="12" font-weight="500" fill="#185adb">9</text><path d="M1005.0 702h-48v30h48" fill="none" stroke="#185adb" stroke-width="2" marker-end="url(#arrow)"/><text x="946.0" y="718" text-anchor="end" font-size="14" font-weight="500" fill="#185adb">核对 Task B / S 的归属</text></g><g data-event="9"><rect class="event-highlight" x="7" y="761" width="1086" height="64" rx="8" fill="#edf4ff" opacity="0"/><circle cx="20" cy="787" r="12" fill="#edf4ff"/><text x="20" y="791" text-anchor="middle" font-size="12" font-weight="500" fill="#185adb">10</text><path d="M1005.0 798L95.0 798" fill="none" stroke="#117d58" stroke-width="2" stroke-dasharray="7 5" marker-end="url(#arrow)"/><text x="550.0" y="784" text-anchor="middle" font-size="15" font-weight="500" fill="#117d58">保留旧记录，接受新尝试</text></g><text x="30" y="888" text-anchor="start" font-size="15" font-weight="500" fill="#516581">复用范围是同一工具的原生会话；不是把 Claude 的 Session 交给 Codex。</text></svg>